grf
version=1
nRows=5
nColumns=73
inDegrees=yes
endheader
time	ground_force_1_vx	ground_force_1_vy	ground_force_1_vz	ground_force_1_px	ground_force_1_py	ground_force_1_pz	ground_moment_1_mx	ground_moment_1_my	ground_moment_1_mz	ground_force_2_vx	ground_force_2_vy	ground_force_2_vz	ground_force_2_px	ground_force_2_py	ground_force_2_pz	ground_moment_2_mx	ground_moment_2_my	ground_moment_2_mz	ground_force_3_vx	ground_force_3_vy	ground_force_3_vz	ground_force_3_px	ground_force_3_py	ground_force_3_pz	ground_moment_3_mx	ground_moment_3_my	ground_moment_3_mz	ground_force_4_vx	ground_force_4_vy	ground_force_4_vz	ground_force_4_px	ground_force_4_py	ground_force_4_pz	ground_moment_4_mx	ground_moment_4_my	ground_moment_4_mz	ground_force_5_vx	ground_force_5_vy	ground_force_5_vz	ground_force_5_px	ground_force_5_py	ground_force_5_pz	ground_moment_5_mx	ground_moment_5_my	ground_moment_5_mz	ground_force_6_vx	ground_force_6_vy	ground_force_6_vz	ground_force_6_px	ground_force_6_py	ground_force_6_pz	ground_moment_6_mx	ground_moment_6_my	ground_moment_6_mz	ground_force_7_vx	ground_force_7_vy	ground_force_7_vz	ground_force_7_px	ground_force_7_py	ground_force_7_pz	ground_moment_7_mx	ground_moment_7_my	ground_moment_7_mz	ground_force_8_vx	ground_force_8_vy	ground_force_8_vz	ground_force_8_px	ground_force_8_py	ground_force_8_pz	ground_moment_8_mx	ground_moment_8_my	ground_moment_8_mz
1.189000	0.528060	445.726051	4.640713	0.400625	0.000000	0.338592	0.000000	-1.611518	0.000000	0.000000	0.000000	0.000000	0.000000	0.000000	0.000000	0.000000	0.000000	0.000000	-13.418880	345.451848	7.861682	0.431255	0.000000	0.341981	0.000000	-1.285730	-0.000000	13.963339	100.297760	-3.222317	0.305530	0.000000	0.336229	-0.000000	0.185714	-0.000000	-13.830981	339.147850	7.543052	0.432174	0.000000	0.339273	0.000000	-1.253821	0.000000	14.337755	103.293266	-3.017609	0.308371	0.000000	0.339413	-0.000000	0.135583	0.000000	0.874215	439.366748	3.889099	0.402361	0.000000	0.338934	0.000000	-1.562702	0.000000	0.000000	0.000000	0.000000	0.000000	0.000000	0.000000	0.000000	0.000000	0.000000
1.190000	0.461322	446.334125	4.580472	0.400082	0.000000	0.338579	0.000000	-1.626603	0.000000	0.000000	0.000000	0.000000	0.000000	0.000000	0.000000	0.000000	0.000000	0.000000	-13.336654	347.256421	7.953172	0.430312	0.000000	0.341994	0.000000	-1.290122	0.000000	13.813424	99.098457	-3.373877	0.304925	0.000000	0.336087	-0.000000	0.190151	-0.000000	-13.728445	340.889195	7.636951	0.431237	0.000000	0.339289	0.000000	-1.267495	0.000000	14.206745	102.147586	-3.163191	0.307548	0.000000	0.339333	-0.000000	0.144928	0.000000	0.845940	439.962893	3.837593	0.401772	0.000000	0.338942	0.000000	-1.580915	0.000000	0.000000	0.000000	0.000000	0.000000	0.000000	0.000000	0.000000	0.000000	0.000000
1.191000	0.383887	446.944883	4.513915	0.399563	0.000000	0.338560	0.000000	-1.640484	0.000000	0.000000	0.000000	0.000000	0.000000	0.000000	0.000000	0.000000	0.000000	0.000000	-13.256310	349.067979	8.040783	0.429378	0.000000	0.342003	0.000000	-1.291035	0.000000	13.654584	97.894878	-3.527878	0.304405	0.000000	0.335930	-0.000000	0.192261	-0.000000	-13.632904	342.650379	7.727621	0.430297	0.000000	0.339304	0.000000	-1.277617	0.000000	14.065843	100.981860	-3.309570	0.306801	0.000000	0.339234	-0.000000	0.151952	0.000000	0.800748	440.558831	3.782072	0.401199	0.000000	0.338945	0.000000	-1.597886	0.000000	0.000000	0.000000	0.000000	0.000000	0.000000	0.000000	0.000000	0.000000	0.000000
1.192000	0.297851	447.560013	4.441584	0.399071	0.000000	0.338539	0.000000	-1.652524	0.000000	0.000000	0.000000	0.000000	0.000000	0.000000	0.000000	0.000000	0.000000	0.000000	-13.176540	350.880934	8.124014	0.428457	0.000000	0.342010	0.000000	-1.288677	0.000000	13.487642	96.694325	-3.683286	0.303971	0.000000	0.335764	-0.000000	0.192698	-0.000000	-13.543259	344.427104	7.814972	0.429361	0.000000	0.339317	0.000000	-1.284075	0.000000	13.915288	99.801836	-3.458183	0.306137	0.000000	0.339114	0.000000	0.156461	0.000000	0.739980	441.156010	3.721003	0.400647	0.000000	0.338943	0.000000	-1.613809	0.000000	0.000000	0.000000	0.000000	0.000000	0.000000	0.000000	0.000000	0.000000	0.000000
1.193000	0.204543	448.180971	4.364895	0.398604	0.000000	0.338515	0.000000	-1.661938	0.000000	0.000000	0.000000	0.000000	0.000000	0.000000	0.000000	0.000000	0.000000	0.000000	-13.096483	352.689453	8.202761	0.427554	0.000000	0.342015	0.000000	-1.283233	0.000000	13.313094	95.504105	-3.838584	0.303620	0.000000	0.335593	-0.000000	0.192208	-0.000000	-13.457790	346.215309	7.899134	0.428435	0.000000	0.339330	0.000000	-1.287033	0.000000	13.755732	98.614379	-3.609401	0.305561	0.000000	0.338975	0.000000	0.158651	0.000000	0.666011	441.757223	3.654143	0.400120	0.000000	0.338936	0.000000	-1.628659	0.000000	0.000000	0.000000	0.000000	0.000000	0.000000	0.000000	0.000000	0.000000	0.000000
